<svg xmlns="http://www.w3.org/2000/svg" xmlns:xlink="http://www.w3.org/1999/xlink" version="1.1" x="0px" y="0px" viewBox="0 0 100 100" enable-background="new 0 0 100 100" xml:space="preserve"><path d="M53.841,29.968C53.841,21.149,60.989,14,69.807,14c8.818,0,15.968,7.149,15.968,15.968c0,8.817-7.149,15.965-15.968,15.965  C60.989,45.933,53.841,38.785,53.841,29.968z M69.807,49.771c-6.197,0-11.869,2.242-16.258,5.954  c4.324,5.236,6.939,11.934,6.939,19.239V86H95V74.964C95,61.051,83.721,49.771,69.807,49.771z M30.193,49.771  C16.279,49.771,5,61.051,5,74.964V86h50.386V74.964C55.386,61.051,44.107,49.771,30.193,49.771z M30.193,45.933  c8.818,0,15.967-7.148,15.967-15.965C46.16,21.149,39.011,14,30.193,14c-8.818,0-15.966,7.149-15.966,15.968  C14.227,38.785,21.375,45.933,30.193,45.933z" fill="#88D498" /><text x="0" y="115" fill="#000000" font-size="5px" font-weight="bold" font-family="'Helvetica Neue', Helvetica, Arial-Unicode, Arial, Sans-serif">Created by Francesco Terzini</text><text x="0" y="120" fill="#000000" font-size="5px" font-weight="bold" font-family="'Helvetica Neue', Helvetica, Arial-Unicode, Arial, Sans-serif">from the Noun Project</text></svg>