<?xml version="1.0" encoding="UTF-8" standalone="no"?>
<svg width="315px" height="45px" viewBox="0 0 315 45" version="1.1" xmlns="http://www.w3.org/2000/svg" xmlns:xlink="http://www.w3.org/1999/xlink" xmlns:sketch="http://www.bohemiancoding.com/sketch/ns">
    <!-- Generator: Sketch 3.0.1 (7597) - http://www.bohemiancoding.com/sketch -->
    <title>InMobi_logo_color_blk</title>
    <description>Created with Sketch.</description>
    <defs></defs>
    <g id="Page-1" stroke="none" stroke-width="1" fill="none" fill-rule="evenodd" sketch:type="MSPage">
        <g id="InMobi_logo_color_blk" sketch:type="MSLayerGroup" transform="translate(0.000000, 1.000000)">
            <path d="M46.571,-0.414 L37.915,-0.414 C31.852,-0.414 27.028,1.218 23.569,4.441 C20.084,7.691 18.316,12.414 18.316,18.476 L18.316,43.902 L28.356,43.902 L28.356,17.589 C28.356,14.754 29.185,12.627 30.89,11.087 C32.612,9.529 34.975,8.74 37.915,8.74 L46.571,8.74 C49.51,8.74 51.873,9.53 53.598,11.087 C55.279,12.605 56.13,14.793 56.13,17.589 L56.13,43.902 L66.17,43.902 L66.17,18.476 C66.17,12.412 64.401,7.689 60.915,4.441 C57.462,1.22 52.637,-0.414 46.571,-0.414" id="Fill-1" fill="#1A1918" sketch:type="MSShapeGroup"></path>
            <path d="M140.174,-0.414 L131.517,-0.414 C125.457,-0.414 120.631,1.218 117.173,4.441 C117.088,4.52 117.019,4.608 116.937,4.69 C116.854,4.608 116.783,4.52 116.699,4.441 C113.246,1.22 108.42,-0.414 102.354,-0.414 L93.699,-0.414 C87.637,-0.414 82.81,1.218 79.354,4.441 C75.867,7.691 74.101,12.414 74.101,18.476 L74.101,43.902 L84.139,43.902 L84.139,17.589 C84.139,14.754 84.968,12.626 86.674,11.087 C88.395,9.529 90.759,8.74 93.699,8.74 L102.354,8.74 C105.292,8.74 107.656,9.53 109.382,11.087 C111.063,12.604 111.915,14.793 111.915,17.589 L111.915,43.902 L121.957,43.902 L121.957,17.589 C121.957,14.754 122.787,12.627 124.491,11.087 C126.215,9.529 128.577,8.74 131.517,8.74 L140.174,8.74 C143.11,8.74 145.475,9.53 147.199,11.087 C148.881,12.605 149.732,14.793 149.732,17.589 L149.732,43.902 L159.771,43.902 L159.771,18.476 C159.771,12.412 158.004,7.688 154.518,4.441 C151.063,1.22 146.238,-0.414 140.174,-0.414" id="Fill-2" fill="#1A1918" sketch:type="MSShapeGroup"></path>
            <path d="M245.877,25.407 L269.218,25.407 C274.058,25.407 274.709,27.62 274.709,29.783 C274.709,33.227 273.205,34.63 269.513,34.63 L245.877,34.63 L245.877,25.407 L245.877,25.407 Z M267.861,16.137 L245.877,16.137 L245.877,8.8 L267.802,8.8 C272.009,8.8 272.592,10.618 272.592,12.584 C272.592,14.43 272.019,16.137 267.861,16.137 L267.861,16.137 Z M280.421,20.072 C281.158,19.219 281.703,18.166 282.045,16.924 C282.396,15.616 282.568,13.812 282.568,11.407 C282.568,6.946 281.021,3.7 277.959,1.751 C275.604,0.314 272.171,-0.414 267.745,-0.414 L235.836,-0.414 L235.836,43.902 L270.394,43.902 C275.197,43.902 278.809,42.839 281.128,40.745 C283.493,38.606 284.69,35.077 284.69,30.255 C284.69,25.33 283.256,21.913 280.421,20.072 L280.421,20.072 Z" id="Fill-3" fill="#1A1918" sketch:type="MSShapeGroup"></path>
            <path d="M305.657,-0.328 L309.46,-0.328 L309.46,0.384 L307.968,0.384 L307.968,4.374 L307.144,4.374 L307.144,0.384 L305.657,0.384 L305.657,-0.328" id="Fill-4" fill="#1A1918" sketch:type="MSShapeGroup"></path>
            <path d="M309.994,-0.328 L311.154,-0.328 L312.451,3.352 L312.465,3.352 L313.732,-0.328 L314.878,-0.328 L314.878,4.374 L314.091,4.374 L314.091,0.744 L314.08,0.744 L312.775,4.374 L312.097,4.374 L310.793,0.744 L310.781,0.744 L310.781,4.374 L309.994,4.374 L309.994,-0.328" id="Fill-5" fill="#1A1918" sketch:type="MSShapeGroup"></path>
            <path d="M292.496,-0.37 L302.698,-0.37 L302.698,43.902 L292.496,43.902 L292.496,-0.37 Z" id="Fill-6" fill="#1A1918" sketch:type="MSShapeGroup"></path>
            <path d="M166.475,14.835 C166.497,14.799 166.521,14.764 166.543,14.728 L166.684,14.518 C166.811,14.339 166.936,14.171 167.07,13.999 C167.127,13.921 167.154,13.886 167.184,13.849 L167.247,13.771 C167.493,13.474 167.779,13.17 168.137,12.829 L168.244,12.729 C168.418,12.567 168.607,12.404 168.805,12.239 C168.904,12.157 169.002,12.074 169.107,11.99 L169.158,11.953 C169.713,11.524 170.299,11.14 170.938,10.778 L171.148,10.661 C171.602,10.412 172.063,10.187 172.547,9.978 L172.599,9.955 C172.832,9.854 173.075,9.758 173.323,9.661 C173.433,9.62 173.54,9.581 173.65,9.542 C174.08,9.383 174.54,9.232 175.01,9.093 C175.153,9.049 175.301,9.005 175.455,8.964 C175.521,8.947 175.585,8.928 175.648,8.907 C175.743,8.879 175.838,8.85 175.941,8.824 C176.74,8.606 177.514,8.435 178.23,8.297 L178.238,8.296 C178.578,8.231 178.906,8.174 179.219,8.124 C179.225,8.123 179.232,8.122 179.238,8.121 C179.268,8.116 179.297,8.111 179.326,8.107 C179.371,8.101 179.418,8.093 179.461,8.086 L179.502,8.08 C179.775,8.039 180.033,8.004 180.275,7.973 L180.352,7.962 L180.352,7.963 C180.598,7.932 180.826,7.905 181.035,7.884 C181.079,7.88 181.121,7.876 181.162,7.872 L181.218,7.865 L181.218,7.866 C181.24,7.863 181.262,7.861 181.283,7.859 C181.313,7.856 181.344,7.854 181.372,7.852 L181.379,7.851 C181.527,7.837 181.659,7.826 181.779,7.816 C181.797,7.815 181.814,7.813 181.832,7.812 C181.908,7.807 181.98,7.802 182.043,7.797 L182.122,7.794 C182.34,7.77 182.598,7.756 182.853,7.756 L212.615,7.756 C214.957,7.756 217.043,8.865 218.379,10.586 L218.277,10.026 C218.233,9.812 218.186,9.595 218.132,9.374 L218.072,9.134 C218.015,8.911 217.953,8.686 217.885,8.458 L217.715,7.924 C217.613,7.62 217.501,7.315 217.377,7.01 C217.373,7.001 217.369,6.992 217.365,6.982 C216.103,3.902 213.643,0.823 208.874,-0.162 C208.799,-0.177 208.723,-0.194 208.647,-0.208 C208.445,-0.246 208.238,-0.281 208.028,-0.313 C208.003,-0.316 207.975,-0.321 207.95,-0.324 C207.748,-0.353 207.539,-0.375 207.328,-0.397 C207.165,-0.413 207,-0.427 206.832,-0.438 C206.721,-0.445 206.611,-0.455 206.498,-0.46 L206.43,-0.464 C206.132,-0.479 205.828,-0.488 205.515,-0.488 L183.413,-0.488 C174.238,-0.488 166.742,6.343 166.475,14.835" id="Fill-7" fill="#6FBFDB" sketch:type="MSShapeGroup"></path>
            <path d="M219.673,30.246 C219.65,30.351 219.623,30.459 219.594,30.572 C219.592,30.584 219.588,30.597 219.585,30.607 C219.556,30.72 219.524,30.835 219.489,30.955 C219.486,30.969 219.481,30.982 219.477,30.997 C219.442,31.116 219.404,31.24 219.362,31.367 C219.358,31.38 219.354,31.393 219.351,31.403 C219.307,31.536 219.26,31.673 219.209,31.812 C219.207,31.817 219.205,31.823 219.203,31.83 C218.877,32.724 218.397,33.746 217.699,34.824 C217.692,34.833 217.687,34.842 217.681,34.851 C217.57,35.02 217.455,35.189 217.334,35.36 C217.324,35.373 217.316,35.384 217.309,35.396 C217.182,35.572 217.051,35.749 216.914,35.927 C216.911,35.93 216.908,35.934 216.905,35.937 C216.476,36.49 215.984,37.051 215.423,37.608 C215.419,37.612 215.413,37.617 215.409,37.621 C215.235,37.794 215.055,37.965 214.867,38.136 C214.833,38.167 214.797,38.199 214.762,38.229 C214.601,38.376 214.436,38.521 214.264,38.664 C214.215,38.705 214.166,38.746 214.115,38.786 C213.95,38.923 213.779,39.059 213.605,39.193 C213.55,39.236 213.495,39.278 213.438,39.321 C213.257,39.458 213.069,39.595 212.877,39.73 C212.825,39.767 212.775,39.804 212.723,39.841 C212.494,39.998 212.26,40.154 212.018,40.31 C211.998,40.322 211.98,40.333 211.963,40.346 C211.431,40.683 210.863,41.012 210.258,41.331 C210.182,41.371 210.102,41.41 210.025,41.45 C209.803,41.563 209.577,41.679 209.346,41.789 C209.24,41.84 209.133,41.889 209.025,41.939 C208.811,42.038 208.594,42.137 208.371,42.234 C208.252,42.286 208.129,42.338 208.006,42.39 C207.786,42.482 207.561,42.572 207.332,42.663 C207.203,42.714 207.074,42.764 206.943,42.814 C206.703,42.904 206.456,42.993 206.207,43.081 C206.08,43.125 205.957,43.171 205.828,43.214 C205.532,43.314 205.229,43.41 204.92,43.506 C204.832,43.533 204.746,43.562 204.656,43.59 C204.268,43.706 203.872,43.819 203.465,43.928 L210.215,43.928 C220.569,43.928 228.993,36.842 228.993,28.132 L228.993,15.306 C228.993,7.102 221.518,0.339 211.996,-0.419 C212.003,-0.415 212.01,-0.411 212.018,-0.408 L212.103,-0.368 C212.32,-0.266 212.503,-0.176 212.68,-0.083 L212.847,0.005 C213.042,0.111 213.231,0.222 213.416,0.336 L213.535,0.413 C213.729,0.537 213.879,0.638 214.023,0.741 C214.061,0.766 214.107,0.798 214.154,0.833 C214.318,0.953 214.479,1.078 214.637,1.205 L214.806,1.347 C214.947,1.466 215.088,1.587 215.225,1.716 C215.26,1.747 215.305,1.792 215.348,1.835 C215.471,1.949 215.588,2.067 215.703,2.187 C215.744,2.229 215.789,2.277 215.834,2.326 C215.979,2.481 216.105,2.623 216.226,2.767 C216.27,2.817 216.315,2.874 216.361,2.931 C216.445,3.036 216.536,3.146 216.623,3.264 C216.656,3.307 216.699,3.363 216.741,3.42 C216.848,3.562 216.953,3.71 217.051,3.858 L217.174,4.042 C217.253,4.165 217.332,4.287 217.402,4.409 L217.52,4.601 C217.602,4.741 217.672,4.868 217.742,4.995 L217.855,5.209 C217.931,5.354 218.006,5.498 218.075,5.644 L218.314,6.168 C218.353,6.254 218.379,6.314 218.402,6.375 C218.457,6.501 218.521,6.655 218.58,6.81 L218.648,6.991 C218.695,7.114 218.738,7.236 218.779,7.36 C218.796,7.398 218.817,7.461 218.836,7.521 C218.871,7.622 218.907,7.734 218.943,7.847 L219.031,8.137 C219.078,8.294 219.121,8.444 219.162,8.592 L219.291,9.106 C219.303,9.147 219.316,9.205 219.329,9.265 C219.361,9.396 219.395,9.552 219.426,9.703 L219.451,9.815 L219.617,10.753 C219.621,10.771 219.628,10.812 219.632,10.854 C219.678,11.14 219.717,11.443 219.746,11.731 L219.75,11.794 C219.779,12.032 219.802,12.31 219.821,12.565 C219.84,12.779 219.856,13.061 219.869,13.337 L219.907,15.112 L219.907,28.414 C219.907,29.025 219.83,29.632 219.679,30.218 L219.68,30.218 C219.678,30.227 219.676,30.237 219.673,30.246" id="Fill-8" fill="#008ABD" sketch:type="MSShapeGroup"></path>
            <path d="M168.967,13.683 C168.637,13.998 168.379,14.27 168.174,14.518 C168.155,14.541 168.125,14.58 168.092,14.616 L168.005,14.735 C167.885,14.888 167.771,15.042 167.664,15.192 L167.533,15.386 C167.435,15.539 167.334,15.701 167.244,15.857 L167.186,15.96 C167.098,16.12 167.016,16.28 166.944,16.43 C166.858,16.615 166.794,16.768 166.74,16.911 C166.676,17.076 166.637,17.192 166.605,17.293 L166.59,17.344 C166.561,17.438 166.539,17.513 166.522,17.577 L166.506,17.648 C166.496,17.694 166.485,17.735 166.479,17.768 L166.468,17.827 L166.467,28.126 C166.467,36.839 174.037,43.928 183.342,43.928 L197.29,43.928 C208.451,42.428 213.805,38.287 216.371,34.663 C215.265,35.329 213.975,35.706 212.615,35.706 L182.853,35.706 C178.832,35.706 175.562,32.435 175.562,28.414 L175.562,15.046 C175.562,12.859 176.521,10.886 178.062,9.545 L176.238,9.976 C176.151,9.998 176.074,10.022 175.998,10.046 C175.92,10.069 175.845,10.092 175.764,10.114 C175.622,10.153 175.486,10.192 175.351,10.233 C174.901,10.366 174.467,10.51 174.056,10.66 C173.949,10.697 173.85,10.733 173.75,10.772 C173.512,10.864 173.273,10.959 173.049,11.057 L172.997,11.079 C172.555,11.272 172.135,11.479 171.713,11.71 L171.55,11.799 C170.934,12.146 170.395,12.501 169.922,12.866 L169.825,12.939 C169.557,13.152 169.295,13.376 169.064,13.593 L168.967,13.683" id="Fill-9" fill="#31A5CC" sketch:type="MSShapeGroup"></path>
            <path id="Fill-10" fill="#FFFFFF" sketch:type="MSShapeGroup"></path>
            <g id="Group-14" sketch:type="MSShapeGroup">
                <path id="Fill-11" fill="#FFFFFF"></path>
                <path d="M0.06,-0.408 L10.232,-0.408 L10.232,44 L0.06,44 L0.06,-0.408 Z" id="Fill-13" fill="#1A1918"></path>
            </g>
        </g>
    </g>
</svg>