<svg width="122" height="31" viewBox="0 0 122 31" fill="none" xmlns="http://www.w3.org/2000/svg">
<g id="Plivo-logo">
<g id="Group 33">
<g id="Group 4">
<path id="Fill 1" fill-rule="evenodd" clip-rule="evenodd" d="M19.2818 0.000105204C15.9958 0.0113552 12.9651 1.11161 10.5166 2.96561C8.06921 4.81848 6.20301 7.42511 5.24837 10.4446C5.2097 10.5684 5.15003 10.682 5.0749 10.7821C4.99756 10.8834 4.90475 10.97 4.79978 11.0397C3.28605 12.0421 2.04082 13.4259 1.19887 15.0582C0.355828 16.6895 -0.0839268 18.5694 0.0133053 20.5629C0.152524 23.4451 1.43864 25.9865 3.39875 27.8034C5.35776 29.6214 7.99187 30.716 10.8271 30.7059H19.3857H27.9443C30.7784 30.6957 33.4048 29.5674 35.3528 27.7224C37.3007 25.8751 38.5692 23.3112 38.6885 20.4267C38.7736 18.4332 38.3195 16.5567 37.4654 14.93C36.6124 13.3044 35.3583 11.9296 33.839 10.9396C33.7319 10.8687 33.638 10.7821 33.5617 10.6831C33.4844 10.583 33.4258 10.4705 33.386 10.3467C32.4104 7.33398 30.5276 4.74086 28.0659 2.90373C25.6064 1.06773 22.5678 -0.0122698 19.2818 0.000105204ZM19.2951 3.83073C21.7204 3.82173 24.023 4.64073 25.8936 6.05148C27.7653 7.46336 29.2028 9.46698 29.9 11.8306L30.0503 12.3425L30.2017 12.8544C30.2415 12.9871 30.3044 13.1086 30.3873 13.2166C30.4691 13.3246 30.5718 13.4157 30.6889 13.4866L31.1409 13.7577L31.5939 14.03C32.6778 14.6802 33.5363 15.5904 34.112 16.6591C34.6876 17.7267 34.9793 18.9519 34.9318 20.2344C34.8622 22.0962 34.039 23.7466 32.7783 24.9335C31.5165 26.1204 29.815 26.8437 27.9863 26.8494L19.3724 26.8809L10.7586 26.9101C8.92993 26.9169 7.22285 26.2059 5.95331 25.0269C4.68376 23.849 3.85177 22.2042 3.7689 20.3435C3.71144 19.061 3.99651 17.8347 4.56443 16.7615C5.13236 15.6894 5.98535 14.7736 7.06595 14.1155L7.51675 13.841L7.96645 13.5665C8.08247 13.4945 8.18412 13.4022 8.26588 13.2942C8.34765 13.1862 8.41063 13.0625 8.44819 12.9297L8.59625 12.4167L8.74431 11.9049C9.42383 9.53673 10.8492 7.52186 12.7109 6.09761C14.5716 4.67336 16.8687 3.83861 19.2951 3.83073Z" fill="#03A94A"/>
<path id="Fill 3" fill-rule="evenodd" clip-rule="evenodd" d="M16.3651 13.1298C16.3651 13.3548 16.2767 13.5596 16.132 13.7081C15.9873 13.8566 15.7873 13.9488 15.5652 13.9499L14.7575 13.9522L13.9487 13.9556C13.7277 13.9556 13.5277 13.8644 13.3819 13.7171C13.236 13.5708 13.1454 13.3672 13.1443 13.1422L13.141 12.3187L13.1377 11.4952C13.1377 11.2702 13.2272 11.0654 13.3719 10.9169C13.5167 10.7684 13.7167 10.6762 13.9388 10.6751L14.7464 10.6728L15.5552 10.6694C15.7762 10.6694 15.9762 10.7617 16.1221 10.9079C16.2679 11.0553 16.3585 11.2589 16.3596 11.4839L16.3629 12.3074L16.3651 13.1298Z" fill="#03A94A"/>
<path id="Fill 5" fill-rule="evenodd" clip-rule="evenodd" d="M20.9383 13.1298C20.9394 13.3548 20.8499 13.5596 20.7051 13.7081C20.5604 13.8566 20.3604 13.9488 20.1383 13.9499L19.3306 13.9522L18.5218 13.9556C18.3008 13.9556 18.1009 13.8644 17.955 13.7171C17.8092 13.5708 17.7186 13.3672 17.7174 13.1422L17.7141 12.3187L17.7119 11.4952C17.7108 11.2702 17.8003 11.0654 17.9451 10.9169C18.0898 10.7684 18.2909 10.6762 18.5119 10.6751L19.3196 10.6728L20.1284 10.6694C20.3493 10.6694 20.5493 10.7617 20.6952 10.9079C20.841 11.0553 20.9316 11.2589 20.9327 11.4839L20.9361 12.3074L20.9383 13.1298Z" fill="#03A94A"/>
<path id="Fill 7" fill-rule="evenodd" clip-rule="evenodd" d="M25.5116 13.1311C25.5116 13.3561 25.4221 13.5609 25.2774 13.7094C25.1326 13.8579 24.9327 13.9501 24.7106 13.9512L23.9029 13.9535L23.0941 13.9557C22.8731 13.9569 22.672 13.8657 22.5262 13.7184C22.3803 13.5721 22.2897 13.3674 22.2897 13.1424L22.2864 12.3189L22.2842 11.4965C22.2831 11.2704 22.3726 11.0656 22.5173 10.9171C22.6621 10.7686 22.8621 10.6764 23.0841 10.6752L23.8918 10.673L24.7006 10.6696C24.9227 10.6651 25.126 10.7506 25.2752 10.8957C25.4243 11.0397 25.5205 11.2411 25.526 11.4672V11.4762V11.4841L25.5183 12.3076L25.5116 13.1311Z" fill="#03A94A"/>
<path id="Fill 9" fill-rule="evenodd" clip-rule="evenodd" d="M16.3671 17.7848C16.3671 18.0098 16.2787 18.2146 16.1329 18.3631C15.9881 18.5116 15.7892 18.6038 15.5671 18.605L14.7594 18.6072L13.9507 18.6106C13.7297 18.6106 13.5297 18.5195 13.3838 18.3721C13.238 18.2258 13.1474 18.0222 13.1452 17.7972L13.143 16.9726L13.1396 16.1502C13.1396 15.9252 13.2291 15.7205 13.3739 15.572C13.5186 15.4235 13.7186 15.3312 13.9396 15.3301L14.7484 15.3267L15.5572 15.3245C15.7782 15.3245 15.9782 15.4167 16.124 15.563C16.2699 15.7103 16.3605 15.914 16.3616 16.139L16.3649 16.9625L16.3671 17.7848Z" fill="#03A94A"/>
<path id="Fill 11" fill-rule="evenodd" clip-rule="evenodd" d="M20.9403 17.7848C20.9403 18.0098 20.8519 18.2146 20.7072 18.3631C20.5625 18.5116 20.3625 18.6038 20.1404 18.605L19.3327 18.6072L18.5239 18.6106C18.3029 18.6106 18.1029 18.5195 17.9571 18.3721C17.8112 18.2258 17.7206 18.0222 17.7195 17.7972L17.7162 16.9726L17.7129 16.1502C17.7129 15.9252 17.8024 15.7205 17.9471 15.572C18.0919 15.4235 18.2919 15.3312 18.514 15.3301L19.3216 15.3267L20.1304 15.3245C20.3514 15.3245 20.5514 15.4167 20.6973 15.563C20.8431 15.7103 20.9337 15.914 20.9348 16.139L20.9381 16.9625L20.9403 17.7848Z" fill="#03A94A"/>
<path id="Fill 13" fill-rule="evenodd" clip-rule="evenodd" d="M25.5136 17.7848C25.5136 18.0098 25.4252 18.2146 25.2804 18.3631C25.1357 18.5116 24.9357 18.6038 24.7136 18.605L23.9059 18.6072L23.0971 18.6106C22.8762 18.6106 22.6751 18.5206 22.5292 18.3732C22.3834 18.227 22.2928 18.0222 22.2928 17.7972L22.2894 16.9726L22.2861 16.1502C22.2861 15.9252 22.3745 15.7205 22.5204 15.572C22.6651 15.4235 22.8651 15.3312 23.0872 15.3301L23.8949 15.3267L24.7037 15.3245C24.9247 15.3245 25.1246 15.4167 25.2705 15.563C25.4163 15.7103 25.5069 15.914 25.5081 16.139L25.5114 16.9625L25.5136 17.7848Z" fill="#03A94A"/>
<path id="Fill 15" fill-rule="evenodd" clip-rule="evenodd" d="M16.37 22.4387C16.3711 22.6637 16.2816 22.8695 16.1369 23.018C15.9921 23.1654 15.7922 23.2588 15.5701 23.2588L14.7624 23.261L13.9536 23.2633C13.7315 23.2644 13.5315 23.1733 13.3857 23.0259C13.2398 22.8797 13.1492 22.676 13.1481 22.4499L13.1459 21.6264L13.1426 20.804C13.1426 20.579 13.2321 20.3743 13.3768 20.2258C13.5216 20.0773 13.7216 19.985 13.9425 19.9839L14.7502 19.9805L15.5601 19.9783C15.7811 19.9772 15.9811 20.0694 16.1269 20.2157C16.2728 20.363 16.3634 20.5678 16.3645 20.7928L16.3667 21.6163L16.37 22.4387Z" fill="#03A94A"/>
<path id="Fill 17" fill-rule="evenodd" clip-rule="evenodd" d="M20.9423 22.4387C20.9434 22.6637 20.8539 22.8695 20.7092 23.018C20.5644 23.1654 20.3644 23.2588 20.1423 23.2588L19.3346 23.261L18.5258 23.2633C18.3038 23.2644 18.1038 23.1733 17.9579 23.0259C17.8121 22.8797 17.7215 22.676 17.7204 22.4499L17.7182 21.6264L17.7148 20.804C17.7148 20.579 17.8043 20.3743 17.9491 20.2258C18.0938 20.0773 18.2938 19.985 18.5148 19.9839L19.3236 19.9805L20.1324 19.9783C20.3534 19.9772 20.5534 20.0694 20.6992 20.2157C20.8451 20.363 20.9357 20.5678 20.9368 20.7928L20.9401 21.6163L20.9423 22.4387Z" fill="#03A94A"/>
<path id="Fill 19" fill-rule="evenodd" clip-rule="evenodd" d="M25.5155 22.4387C25.5166 22.6637 25.4271 22.8695 25.2824 23.018C25.1377 23.1654 24.9377 23.2588 24.7156 23.2588L23.9079 23.261L23.0991 23.2633C22.877 23.2644 22.677 23.1733 22.5312 23.0259C22.3853 22.8797 22.2947 22.676 22.2936 22.4499L22.2914 21.6264L22.2881 20.804C22.2881 20.579 22.3765 20.3732 22.5212 20.2247C22.666 20.0762 22.8671 19.9839 23.0891 19.9839L23.8968 19.9805L24.7056 19.9783C24.9266 19.9772 25.1266 20.0694 25.2724 20.2157C25.4183 20.363 25.5089 20.5678 25.51 20.7928L25.5133 21.6163L25.5155 22.4387Z" fill="#03A94A"/>
</g>
<path id="Fill 21" fill-rule="evenodd" clip-rule="evenodd" d="M57.6167 18.7078C57.9438 18.3467 58.188 17.9203 58.3493 17.4264C58.5128 16.9337 58.5924 16.3746 58.5901 15.7491C58.5879 15.1224 58.504 14.5633 58.3382 14.0728C58.1725 13.5801 57.925 13.1548 57.5968 12.7959C57.2687 12.4382 56.893 12.1693 56.4731 11.9904C56.0522 11.8127 55.5859 11.7238 55.0743 11.7261C54.5616 11.7283 54.0965 11.8194 53.6777 12.0006C53.259 12.1817 52.8855 12.4528 52.5595 12.8139C52.2325 13.1751 51.9872 13.6014 51.8259 14.0942C51.6635 14.5881 51.5839 15.1472 51.5861 15.7738C51.5883 16.3982 51.6712 16.9573 51.838 17.4501C52.0027 17.9406 52.2502 18.3658 52.5783 18.7258C52.9076 19.0836 53.2822 19.3524 53.7031 19.5302C54.123 19.7091 54.5893 19.7979 55.1019 19.7957C55.6135 19.7934 56.0787 19.7023 56.4974 19.5212C56.9173 19.3401 57.2897 19.0678 57.6167 18.7078ZM59.7437 8.06307C60.3635 8.42082 60.9204 8.85395 61.4154 9.36357C61.9082 9.87207 62.3369 10.4582 62.7037 11.1186C63.0695 11.7789 63.3446 12.4944 63.528 13.2617C63.7125 14.0301 63.8064 14.8524 63.8086 15.7288C63.812 16.6041 63.7236 17.4264 63.5446 18.1959C63.3656 18.9654 63.0949 19.6821 62.7347 20.3447C62.3734 21.0084 61.9469 21.5957 61.4574 22.1087C60.9668 22.6217 60.4132 23.0582 59.7956 23.4204C59.1769 23.7827 58.5239 24.0549 57.8355 24.2372C57.1471 24.4183 56.4256 24.5106 55.6666 24.5139C54.6942 24.5173 53.8258 24.3722 53.0579 24.0774C52.2888 23.7849 51.6193 23.3406 51.0447 22.7488L51.0458 26.1564V29.5641C51.0469 29.8712 50.9254 30.1491 50.7298 30.3516C50.532 30.5529 50.2602 30.6789 49.9586 30.6801L48.1311 30.6857L46.3046 30.6913C46.003 30.6924 45.729 30.5698 45.5312 30.3696C45.3334 30.1693 45.2097 29.8914 45.2097 29.5854L45.181 18.9407L45.1533 8.29595C45.1522 7.98995 45.2738 7.71207 45.4704 7.50957C45.6671 7.30707 45.94 7.1822 46.2406 7.18107L47.9289 7.17545L49.6183 7.16982C49.9199 7.1687 50.1928 7.29245 50.3906 7.49157C50.5895 7.69295 50.7121 7.9697 50.7132 8.27682L50.7066 8.6312L50.7 8.98557C51.2403 8.32745 51.9198 7.83245 52.7374 7.5017C53.5551 7.16982 54.5119 7.00332 55.6091 6.99882C56.366 6.99657 57.0886 7.0832 57.778 7.26095C58.4686 7.43757 59.1227 7.70645 59.7437 8.06307Z" fill="#05006D"/>
<path id="Fill 23" fill-rule="evenodd" clip-rule="evenodd" d="M67.554 1.30648L69.3805 1.29973L71.2091 1.29298C71.5096 1.29185 71.7825 1.4156 71.9814 1.61585C72.1803 1.8161 72.3029 2.09398 72.304 2.4011V12.894V23.3869C72.3052 23.6929 72.1836 23.9707 71.9869 24.1732C71.7903 24.3746 71.5185 24.4995 71.2157 24.5006L69.3893 24.5074L67.5618 24.5141C67.2601 24.5152 66.9872 24.3926 66.7894 24.1912C66.5917 23.991 66.469 23.7131 66.4679 23.4071V12.9131L66.4668 2.42023C66.4657 2.11423 66.5872 1.83635 66.7839 1.63385C66.9795 1.43248 67.2535 1.3076 67.554 1.30648Z" fill="#05006D"/>
<path id="Fill 25" fill-rule="evenodd" clip-rule="evenodd" d="M102.071 9.03216L100.586 12.7289L99.101 16.4268L97.616 20.1247L96.1299 23.8225C96.088 23.9272 96.0316 24.0217 95.9653 24.106C95.8968 24.1904 95.8184 24.2635 95.73 24.3232C95.6427 24.3839 95.5465 24.4312 95.4438 24.4638C95.3421 24.4953 95.235 24.5133 95.1245 24.5133H93.982H92.8395L91.6959 24.5144H90.5535C90.443 24.5144 90.3347 24.4975 90.2319 24.466C90.1303 24.4345 90.033 24.3873 89.9446 24.3288C89.8574 24.268 89.7778 24.196 89.7093 24.1117C89.6408 24.0284 89.5844 23.9328 89.5414 23.8293L88.0519 20.1325L86.5636 16.4369L85.0731 12.7413L83.5848 9.04454C83.5096 8.86229 83.4875 8.67554 83.5063 8.49666C83.5262 8.31891 83.587 8.15016 83.6831 8.00279C83.7781 7.85654 83.9085 7.73391 84.0621 7.64616C84.2157 7.55841 84.3936 7.50891 84.588 7.50779L85.493 7.50441L86.3968 7.50104L87.3017 7.49766L88.2055 7.49541C88.3182 7.49429 88.4265 7.51116 88.5304 7.54379C88.6342 7.57641 88.7326 7.62479 88.821 7.68554C88.9105 7.74629 88.99 7.82166 89.0585 7.90716C89.1259 7.99266 89.1823 8.08941 89.2242 8.19629L90.1623 10.6038L91.1004 13.0135L92.0396 15.4222L92.9787 17.8308L93.9455 15.4233L94.9145 13.0158L95.8835 10.6083L96.8525 8.20079C96.8934 8.09729 96.9498 8.00054 97.0183 7.91504C97.0857 7.82954 97.1663 7.75416 97.2536 7.69229C97.3409 7.63041 97.4382 7.58091 97.5387 7.54716C97.6415 7.51341 97.7486 7.49541 97.8591 7.49541L98.6591 7.49654L99.459 7.49766L100.258 7.49879L101.058 7.49991C101.252 7.49991 101.431 7.54941 101.586 7.63491C101.74 7.72154 101.869 7.84416 101.966 7.98929C102.062 8.13554 102.126 8.30541 102.146 8.48316C102.167 8.66091 102.144 8.84879 102.071 9.03216Z" fill="#05006D"/>
<path id="Fill 27" fill-rule="evenodd" clip-rule="evenodd" d="M114.669 18.5033C114.995 18.1433 115.24 17.7135 115.401 17.214C115.564 16.7168 115.645 16.1486 115.642 15.513C115.64 14.8875 115.556 14.3306 115.39 13.8401C115.225 13.3519 114.977 12.93 114.648 12.5756C114.32 12.2235 113.945 11.9591 113.524 11.7825C113.104 11.607 112.638 11.5204 112.125 11.5215C111.614 11.5238 111.148 11.6138 110.73 11.7926C110.31 11.9715 109.938 12.2393 109.612 12.5936C109.285 12.9491 109.039 13.3721 108.878 13.8638C108.716 14.3543 108.636 14.9123 108.638 15.5378C108.641 16.1745 108.723 16.7404 108.89 17.2376C109.055 17.7349 109.302 18.1624 109.631 18.5213C109.96 18.8801 110.334 19.1479 110.755 19.3256C111.175 19.5056 111.641 19.5934 112.154 19.5923C112.666 19.59 113.13 19.4989 113.55 19.3178C113.97 19.1355 114.342 18.8644 114.669 18.5033ZM107.342 23.2058C106.625 22.8334 105.984 22.3868 105.422 21.867C104.86 21.3473 104.376 20.7555 103.968 20.0895C103.561 19.4235 103.256 18.7136 103.051 17.9588C102.846 17.2028 102.743 16.4029 102.74 15.5591C102.737 14.7244 102.835 13.9324 103.035 13.1809C103.234 12.4294 103.536 11.7195 103.938 11.0501C104.34 10.3819 104.82 9.78677 105.376 9.2659C105.932 8.74615 106.566 8.29952 107.276 7.92715C107.986 7.55477 108.744 7.27465 109.55 7.08677C110.356 6.8989 111.209 6.80215 112.111 6.7999C113.012 6.79652 113.866 6.8854 114.677 7.06765C115.485 7.2499 116.25 7.5244 116.967 7.89227C117.685 8.26127 118.325 8.70115 118.884 9.21527C119.443 9.7294 119.925 10.3166 120.326 10.9781C120.727 11.6374 121.03 12.3439 121.232 13.0965C121.434 13.8491 121.537 14.6479 121.539 15.4928C121.543 16.3365 121.445 17.1375 121.249 17.8946C121.051 18.6506 120.755 19.3639 120.356 20.0321C119.959 20.7004 119.483 21.2966 118.927 21.8198C118.37 22.3429 117.734 22.7929 117.019 23.1709C116.303 23.5489 115.542 23.8335 114.734 24.0236C113.925 24.2138 113.07 24.3105 112.169 24.3139C111.279 24.3173 110.43 24.2261 109.627 24.0416C108.822 23.8571 108.062 23.5781 107.342 23.2058Z" fill="#05006D"/>
<path id="Fill 29" fill-rule="evenodd" clip-rule="evenodd" d="M80.5023 6.2932H78.7002H76.8992C76.592 6.2932 76.3125 6.16608 76.1103 5.9602C75.9092 5.75433 75.7832 5.47083 75.7832 5.15695V3.79233V2.42883C75.7832 2.11495 75.9092 1.83145 76.1103 1.6267C76.3125 1.42083 76.592 1.2937 76.8992 1.2937H78.7002H80.5023C80.8094 1.2937 81.089 1.42083 81.2912 1.6267C81.4923 1.83145 81.6171 2.11495 81.6171 2.42883V3.79233V5.15695C81.6171 5.47083 81.4923 5.75433 81.2912 5.9602C81.089 6.16608 80.8094 6.2932 80.5023 6.2932Z" fill="#05006D"/>
<path id="Fill 31" fill-rule="evenodd" clip-rule="evenodd" d="M80.5023 24.514H78.7002H76.8992C76.592 24.514 76.3125 24.3869 76.1103 24.181C75.9092 23.9752 75.7832 23.6928 75.7832 23.3778V16.0102V8.64367C75.7832 8.3298 75.9092 8.04629 76.1103 7.84042C76.3125 7.63454 76.592 7.50854 76.8992 7.50854H78.7002H80.5023C80.8094 7.50854 81.089 7.63454 81.2912 7.84042C81.4923 8.04629 81.6171 8.3298 81.6171 8.64367V16.0102V23.3778C81.6171 23.6928 81.4923 23.9752 81.2912 24.181C81.089 24.3869 80.8094 24.514 80.5023 24.514Z" fill="#05006D"/>
</g>
</g>
</svg>
