<svg width=" 100%" height=" 100%" viewBox="0 0 145 24" fill="none" xmlns="http://www.w3.org/2000/svg">
<g clip-path="url(#clip0_280_11)">
<path d="M20.6489 10.5281C20.6228 11.3309 20.9403 12.053 21.6064 12.7044C22.2673 13.3558 23.027 13.7446 23.8857 13.8708C24.1979 13.9213 24.5882 13.9466 25.0565 13.9466C26.3263 13.9466 27.3566 13.5729 28.1372 12.8205L30.864 14.7797C29.4069 16.3602 27.4659 17.153 25.0461 17.153C22.4702 17.153 20.4199 16.4107 18.8952 14.9161C17.3704 13.4265 16.6107 11.442 16.6107 8.95771C16.6107 6.3017 17.3496 4.20619 18.8379 2.66611C20.321 1.13107 22.4286 0.35851 25.1658 0.35851C27.903 0.35851 29.995 1.44414 31.2959 3.6255C32.3367 5.35241 32.8727 7.65495 32.8987 10.5331H20.6541L20.6489 10.5281ZM27.8822 4.64549C27.1433 3.80728 26.1545 3.38818 24.916 3.38818C23.6775 3.38818 22.6523 3.80728 21.851 4.64549C21.0496 5.48874 20.6489 6.50368 20.6489 7.70545H28.9906C28.9906 6.50368 28.6212 5.48369 27.8874 4.64549H27.8822Z" fill="currentColor"></path>
<path d="M14.2429 17.2489H0V14.4768L9.20561 3.28719H0.452734V0H13.7277V2.79739L4.54296 13.9567H14.2429V17.2489Z" fill="currentColor"></path>
<path d="M50.623 15.3958C49.0983 16.9762 46.9283 17.7639 44.0974 17.7639C41.2665 17.7639 39.1694 16.951 37.6082 15.3301C36.0419 13.7092 35.2613 11.5683 35.2613 8.91227C35.2613 6.25626 36.0262 4.01431 37.5614 2.44898C39.0913 0.878603 41.2769 0.0959394 44.1026 0.0959394C46.9283 0.0959394 49.0775 0.883652 50.6126 2.46413C52.1425 4.0446 52.9127 6.19062 52.9127 8.91732C52.9127 11.644 52.153 13.8203 50.6282 15.4008L50.623 15.3958ZM44.1026 3.07006C40.8294 3.07006 39.1954 5.01915 39.1954 8.91227C39.1954 12.8054 40.8294 14.7545 44.1026 14.7545C47.3758 14.7545 49.0098 12.8054 49.0098 8.91227C49.0098 5.01915 47.3706 3.07006 44.1026 3.07006ZM78.8487 17.1176V8.02356C78.8487 6.97328 78.5469 6.10983 77.9432 5.4332C77.3396 4.75658 76.4966 4.41826 75.4246 4.41826C74.6336 4.41826 73.905 4.62529 73.2233 5.03429C72.5416 5.44835 72.0525 5.99369 71.7663 6.67031C71.6101 7.04902 71.5269 7.35199 71.5269 7.57416V17.1126H67.624V8.02356C67.624 6.97328 67.3222 6.10983 66.7289 5.4332C66.1305 4.75658 65.3031 4.41826 64.2415 4.41826C63.1799 4.41826 62.264 4.76162 61.4991 5.4534C60.7341 6.14012 60.3542 6.99853 60.3542 8.02356V17.1126H56.4461V1.13108H60.3542V3.03976C61.9882 1.59562 63.7419 0.873554 65.6101 0.873554C67.3482 0.873554 68.8469 1.41889 70.0906 2.51462C71.8287 1.47444 73.7281 0.959394 75.7784 0.959394C77.8287 0.959394 79.3639 1.3987 80.6128 2.28235C82.0387 3.28719 82.7568 4.70103 82.7568 6.53903V17.1176H78.8487ZM90.3128 10.7907C90.2868 11.5935 90.6094 12.3156 91.2703 12.967C91.9364 13.6183 92.6961 14.0072 93.5496 14.1334C93.8618 14.1839 94.2521 14.2091 94.7204 14.2091C95.9902 14.2091 97.0205 13.8355 97.8011 13.0831L100.528 15.0423C99.0708 16.6228 97.135 17.4155 94.71 17.4155C92.1341 17.4155 90.0838 16.6733 88.5591 15.1786C87.0343 13.689 86.2798 11.7046 86.2798 9.22028C86.2798 6.56427 87.0187 4.46876 88.507 2.92868C89.9901 1.3886 92.0977 0.616032 94.8349 0.616032C97.5721 0.616032 99.6641 1.70166 100.965 3.88302C102.006 5.60993 102.537 7.91248 102.568 10.7907H90.3128ZM97.5461 4.91311C96.8124 4.0749 95.8236 3.6558 94.5851 3.6558C93.3466 3.6558 92.3162 4.0749 91.5149 4.91311C90.7135 5.75636 90.3128 6.7713 90.3128 7.97307H98.6545C98.6545 6.7713 98.2851 5.75132 97.5461 4.91311ZM119.277 20.6522C117.872 22.7831 115.874 23.899 113.272 24L112.726 20.6522C115.541 20.223 116.941 18.5567 116.941 15.6482C116.056 16.2188 115.406 16.5824 114.989 16.7339C114.438 16.9358 113.699 17.0318 112.762 17.0318C110.212 17.0318 108.365 16.4056 107.22 15.1534C105.867 13.6789 105.191 11.5228 105.191 8.69009C105.191 6.53398 105.914 4.73638 107.361 3.29729C108.807 1.85819 110.655 1.13612 112.897 1.13612C114.23 1.13612 115.635 1.52493 117.123 2.29245V1.13108H121.026V13.9163C121.026 16.5773 120.438 18.8193 119.272 20.6472L119.277 20.6522ZM117.128 7.2106C117.128 6.53903 116.785 5.91795 116.108 5.35746C115.427 4.79697 114.719 4.5142 113.99 4.5142C112.575 4.5142 111.435 4.90301 110.577 5.68062C109.713 6.45319 109.281 7.50347 109.281 8.83148C109.281 12.1086 110.603 13.7496 113.251 13.7496C114.063 13.7496 114.885 13.5123 115.723 13.0326C116.665 12.5125 117.139 11.8864 117.139 11.1593V7.21565L117.128 7.2106ZM135.732 17.0368V15.724C133.801 16.6884 132.032 17.1631 130.414 17.1631C128.592 17.1631 127.166 16.7036 126.136 15.7896C125.106 14.8757 124.596 13.5376 124.596 11.7804C124.596 9.87166 125.288 8.41742 126.667 7.41258C127.89 6.53398 129.519 6.09468 131.553 6.09468C132.906 6.09468 134.301 6.47339 135.737 7.22575C135.685 4.5647 134.353 3.23669 131.746 3.23669C130.362 3.23669 129.191 3.56491 128.233 4.22133L126.979 2.03493C128.259 0.959394 130.039 0.414054 132.329 0.414054C134.358 0.414054 136.023 0.853356 137.33 1.72691C138.813 2.7065 139.557 4.13549 139.557 6.01389V17.0368H135.732ZM135.732 10.422C135.732 9.9676 135.31 9.59394 134.467 9.28592C133.781 9.0385 133.161 8.91227 132.61 8.91227C129.872 8.91227 128.499 9.83126 128.499 11.6642C128.499 12.4671 128.92 13.0831 129.768 13.5123C130.429 13.8405 131.215 14.0021 132.136 14.0021C132.558 14.0021 133.265 13.8203 134.254 13.4568C135.243 13.0882 135.737 12.7599 135.737 12.457V10.422H135.732Z" fill="currentColor"></path>
<path d="M144.995 1.99453C144.995 2.22175 144.964 2.43383 144.896 2.62571C144.833 2.81759 144.74 2.98422 144.631 3.12056C144.516 3.25689 144.386 3.37303 144.235 3.46897C144.084 3.56491 143.918 3.6356 143.746 3.68104C143.569 3.72649 143.387 3.75174 143.199 3.75174C143.023 3.75174 142.846 3.72649 142.679 3.68104C142.507 3.6356 142.351 3.56491 142.2 3.46897C142.049 3.37303 141.919 3.25689 141.805 3.12056C141.69 2.98422 141.602 2.81759 141.534 2.62571C141.467 2.43383 141.435 2.22175 141.435 1.99453C141.435 1.7673 141.467 1.55523 141.534 1.36335C141.597 1.17147 141.69 1.00484 141.8 0.868504C141.909 0.732169 142.044 0.616032 142.19 0.520093C142.336 0.424153 142.497 0.353461 142.669 0.308016C142.835 0.262571 143.012 0.237324 143.189 0.237324C143.376 0.237324 143.559 0.262571 143.735 0.308016C143.912 0.353461 144.074 0.424153 144.23 0.520093C144.386 0.616032 144.516 0.732169 144.631 0.868504C144.745 1.00484 144.833 1.17147 144.901 1.36335C144.969 1.55523 145 1.7673 145 1.99453H144.995ZM143.199 3.54976C143.449 3.54976 143.668 3.50936 143.866 3.42857C144.063 3.34778 144.225 3.23669 144.35 3.09531C144.474 2.95392 144.573 2.78729 144.636 2.60551C144.703 2.41868 144.735 2.21671 144.735 2.00463C144.735 1.79255 144.703 1.59057 144.636 1.40374C144.568 1.21692 144.469 1.05028 144.344 0.908899C144.219 0.767515 144.053 0.651378 143.855 0.570587C143.657 0.489796 143.434 0.4494 143.184 0.4494C142.934 0.4494 142.736 0.489796 142.544 0.570587C142.351 0.651378 142.195 0.762466 142.07 0.908899C141.945 1.05028 141.852 1.21692 141.784 1.3987C141.716 1.58552 141.685 1.78245 141.685 1.99453C141.685 2.20661 141.716 2.41363 141.784 2.60046C141.852 2.78729 141.945 2.95392 142.07 3.09531C142.195 3.23669 142.351 3.34778 142.549 3.42857C142.742 3.50936 142.955 3.54976 143.194 3.54976H143.199ZM143.225 2.13591H142.814V3.03976H142.518V0.913949H143.095C143.761 0.913949 144.089 1.11088 144.089 1.50473C144.089 1.66127 144.042 1.79255 143.954 1.89859C143.866 2.00463 143.715 2.07027 143.507 2.09552C143.559 2.13086 143.605 2.18136 143.652 2.247C143.699 2.31264 143.741 2.37324 143.777 2.43383C143.814 2.49442 143.866 2.59036 143.938 2.71155C144.006 2.83274 144.074 2.94382 144.136 3.03976H143.803L143.522 2.54997C143.475 2.46413 143.439 2.40353 143.413 2.36314C143.387 2.32274 143.361 2.28235 143.324 2.2369C143.288 2.19146 143.257 2.15611 143.22 2.13591H143.225ZM143.095 1.85819C143.319 1.85819 143.48 1.83295 143.579 1.7875C143.683 1.74206 143.73 1.65117 143.73 1.51988C143.73 1.3886 143.683 1.29266 143.59 1.25226C143.496 1.21187 143.324 1.19167 143.069 1.19167H142.809V1.85819H143.095Z" fill="currentColor"></path>
</g>
<defs>
<clipPath id="clip0_280_11">
<rect width="145" height="24" fill="currentColor"></rect>
</clipPath>
</defs>
</svg>